<svg xmlns="http://www.w3.org/2000/svg" xmlns:xlink="http://www.w3.org/1999/xlink" width="600" zoomAndPan="magnify" viewBox="0 0 450 41.25" height="55" preserveAspectRatio="xMidYMid meet" version="1.0"><defs><clipPath id="0acbe5dac4"><path d="M 26.117188 15 L 52 15 L 52 40.398438 L 26.117188 40.398438 Z M 26.117188 15 " clip-rule="nonzero"/></clipPath></defs><g clip-path="url(#0acbe5dac4)"><path fill="#ffffff" d="M 38.839844 40.035156 C 41.402344 40.035156 43.921875 40.035156 46.484375 40.035156 C 49.089844 40.035156 51.523438 37.699219 51.523438 35.109375 C 51.566406 30.101562 51.566406 25.132812 51.523438 20.125 C 51.523438 17.539062 49.089844 15.242188 46.484375 15.242188 C 41.402344 15.242188 36.320312 15.242188 31.242188 15.242188 C 28.511719 15.242188 26.117188 17.621094 26.117188 20.335938 C 26.117188 25.21875 26.117188 30.101562 26.117188 34.984375 C 26.117188 37.65625 28.511719 40.035156 31.199219 40.035156 C 33.761719 40.035156 36.28125 40.035156 38.839844 40.035156 Z M 38.839844 40.035156 " fill-opacity="1" fill-rule="nonzero"/><path fill="#e8272e" d="M 38.839844 40.035156 C 36.320312 40.035156 33.761719 40.035156 31.242188 40.035156 C 28.550781 40.035156 26.160156 37.65625 26.160156 34.984375 C 26.160156 30.101562 26.160156 25.21875 26.160156 20.335938 C 26.160156 17.621094 28.550781 15.242188 31.28125 15.242188 C 36.363281 15.242188 41.445312 15.242188 46.527344 15.242188 C 49.089844 15.242188 51.523438 17.578125 51.566406 20.125 C 51.609375 25.132812 51.609375 30.101562 51.566406 35.109375 C 51.566406 37.699219 49.132812 40.035156 46.527344 40.035156 C 43.921875 40.035156 41.363281 40.035156 38.839844 40.035156 Z M 38.839844 40.035156 " fill-opacity="1" fill-rule="nonzero"/></g><path fill="#59595c" d="M 57.949219 25.550781 L 59.839844 25.550781 L 59.839844 36.78125 L 57.949219 36.78125 Z M 57.949219 25.550781 " fill-opacity="1" fill-rule="nonzero"/><path fill="#59595c" d="M 71.765625 34.777344 L 71.726562 34.777344 C 71.390625 35.402344 70.800781 35.945312 70.046875 36.40625 C 69.289062 36.863281 68.40625 37.074219 67.398438 37.074219 C 66.601562 37.074219 65.886719 36.90625 65.171875 36.613281 C 64.5 36.320312 63.871094 35.902344 63.367188 35.359375 C 62.863281 34.816406 62.445312 34.191406 62.191406 33.484375 C 61.898438 32.773438 61.773438 31.980469 61.773438 31.144531 C 61.773438 30.308594 61.898438 29.515625 62.191406 28.808594 C 62.484375 28.097656 62.863281 27.472656 63.410156 26.929688 C 63.914062 26.386719 64.542969 26.011719 65.300781 25.675781 C 66.011719 25.386719 66.855469 25.21875 67.734375 25.21875 C 68.574219 25.21875 69.289062 25.386719 70.003906 25.71875 C 70.675781 26.050781 71.304688 26.511719 71.808594 27.136719 L 71.851562 27.136719 L 71.851562 18.664062 L 73.742188 18.664062 L 73.742188 36.78125 L 71.851562 36.78125 L 71.851562 34.777344 C 71.851562 34.777344 71.765625 34.777344 71.765625 34.777344 Z M 71.765625 31.1875 C 71.765625 30.601562 71.683594 30.058594 71.472656 29.558594 C 71.304688 29.058594 71.011719 28.597656 70.675781 28.222656 C 70.339844 27.847656 69.917969 27.554688 69.414062 27.347656 C 68.910156 27.136719 68.367188 27.011719 67.777344 27.011719 C 67.148438 27.011719 66.601562 27.136719 66.140625 27.347656 C 65.636719 27.554688 65.214844 27.847656 64.878906 28.222656 C 64.542969 28.597656 64.25 29.058594 64.082031 29.558594 C 63.914062 30.058594 63.789062 30.601562 63.789062 31.1875 C 63.789062 31.769531 63.871094 32.3125 64.082031 32.816406 C 64.25 33.316406 64.542969 33.773438 64.878906 34.152344 C 65.214844 34.527344 65.636719 34.816406 66.140625 35.027344 C 66.644531 35.234375 67.191406 35.359375 67.777344 35.359375 C 68.40625 35.359375 68.953125 35.234375 69.414062 35.027344 C 69.917969 34.816406 70.339844 34.527344 70.675781 34.152344 C 71.011719 33.773438 71.304688 33.316406 71.472656 32.816406 C 71.683594 32.3125 71.765625 31.769531 71.765625 31.1875 Z M 71.765625 31.1875 " fill-opacity="1" fill-rule="nonzero"/><path fill="#eb2027" d="M 75.757812 27.011719 C 76.34375 26.429688 77.015625 25.96875 77.816406 25.71875 C 78.613281 25.425781 79.410156 25.300781 80.25 25.300781 C 81.929688 25.300781 83.148438 25.675781 83.863281 26.46875 C 84.617188 27.261719 84.953125 28.433594 84.953125 30.058594 L 84.953125 34.859375 C 84.953125 35.195312 84.953125 35.527344 84.996094 35.863281 C 85.039062 36.195312 85.078125 36.53125 85.121094 36.820312 L 83.316406 36.820312 C 83.230469 36.570312 83.230469 36.277344 83.191406 35.988281 C 83.191406 35.695312 83.191406 35.402344 83.191406 35.152344 L 83.148438 35.152344 C 82.769531 35.738281 82.265625 36.195312 81.679688 36.570312 C 81.046875 36.945312 80.335938 37.113281 79.453125 37.113281 C 78.863281 37.113281 78.320312 37.03125 77.816406 36.90625 C 77.3125 36.78125 76.847656 36.53125 76.472656 36.277344 C 76.09375 35.988281 75.796875 35.652344 75.546875 35.234375 C 75.335938 34.816406 75.210938 34.359375 75.210938 33.816406 C 75.210938 32.898438 75.460938 32.148438 75.925781 31.644531 C 76.386719 31.101562 77.015625 30.726562 77.730469 30.476562 C 78.445312 30.226562 79.199219 30.058594 80.039062 30.019531 C 80.878906 29.933594 81.636719 29.933594 82.308594 29.933594 L 83.023438 29.933594 L 83.023438 29.601562 C 83.023438 28.765625 82.769531 28.179688 82.265625 27.765625 C 81.761719 27.347656 81.089844 27.136719 80.207031 27.136719 C 79.578125 27.136719 78.992188 27.222656 78.402344 27.429688 C 77.816406 27.640625 77.3125 27.929688 76.847656 28.347656 Z M 81.214844 31.394531 C 80 31.394531 79.03125 31.5625 78.359375 31.894531 C 77.648438 32.230469 77.3125 32.773438 77.3125 33.566406 C 77.3125 34.277344 77.5625 34.777344 78.023438 35.070312 C 78.488281 35.359375 79.074219 35.527344 79.789062 35.527344 C 80.335938 35.527344 80.796875 35.445312 81.214844 35.234375 C 81.636719 35.070312 81.972656 34.816406 82.222656 34.484375 C 82.519531 34.191406 82.6875 33.816406 82.855469 33.398438 C 82.980469 32.980469 83.0625 32.5625 83.105469 32.105469 L 83.105469 31.394531 C 83.105469 31.394531 81.214844 31.394531 81.214844 31.394531 Z M 81.214844 31.394531 " fill-opacity="1" fill-rule="nonzero"/><path fill="#eb2027" d="M 88.0625 33.816406 C 88.441406 34.277344 88.816406 34.652344 89.28125 34.902344 C 89.742188 35.195312 90.289062 35.320312 90.960938 35.320312 C 91.253906 35.320312 91.546875 35.277344 91.839844 35.234375 C 92.136719 35.152344 92.386719 35.070312 92.640625 34.945312 C 92.890625 34.816406 93.058594 34.609375 93.226562 34.402344 C 93.351562 34.191406 93.4375 33.941406 93.4375 33.609375 C 93.4375 33.316406 93.351562 33.066406 93.226562 32.855469 C 93.101562 32.648438 92.890625 32.480469 92.679688 32.355469 C 92.472656 32.230469 92.21875 32.105469 91.925781 32.023438 C 91.632812 31.9375 91.335938 31.855469 91.042969 31.8125 C 90.496094 31.6875 89.992188 31.5625 89.53125 31.4375 C 89.070312 31.3125 88.609375 31.101562 88.273438 30.894531 C 87.894531 30.644531 87.601562 30.351562 87.390625 29.976562 C 87.179688 29.601562 87.054688 29.140625 87.054688 28.558594 C 87.054688 28.015625 87.179688 27.511719 87.433594 27.136719 C 87.683594 26.71875 87.976562 26.386719 88.398438 26.09375 C 88.816406 25.800781 89.238281 25.636719 89.742188 25.46875 C 90.246094 25.34375 90.75 25.257812 91.296875 25.257812 C 92.09375 25.257812 92.847656 25.425781 93.519531 25.71875 C 94.191406 26.050781 94.738281 26.554688 95.117188 27.261719 L 93.5625 28.308594 C 93.3125 27.890625 93.015625 27.597656 92.597656 27.347656 C 92.21875 27.097656 91.714844 26.972656 91.167969 26.972656 C 90.917969 26.972656 90.664062 27.011719 90.371094 27.054688 C 90.121094 27.136719 89.867188 27.222656 89.65625 27.347656 C 89.449219 27.472656 89.28125 27.640625 89.152344 27.847656 C 89.027344 28.054688 88.945312 28.265625 88.945312 28.515625 C 88.945312 28.765625 89.027344 28.972656 89.152344 29.140625 C 89.320312 29.308594 89.53125 29.476562 89.785156 29.601562 C 90.035156 29.726562 90.371094 29.851562 90.707031 29.933594 C 91.042969 30.019531 91.421875 30.101562 91.800781 30.183594 C 92.304688 30.269531 92.765625 30.394531 93.226562 30.5625 C 93.6875 30.726562 94.066406 30.9375 94.402344 31.1875 C 94.738281 31.4375 94.992188 31.769531 95.203125 32.148438 C 95.410156 32.523438 95.496094 32.980469 95.496094 33.566406 C 95.496094 34.191406 95.371094 34.734375 95.117188 35.195312 C 94.867188 35.652344 94.527344 35.988281 94.109375 36.277344 C 93.6875 36.570312 93.183594 36.78125 92.679688 36.90625 C 92.136719 37.03125 91.589844 37.113281 91.042969 37.113281 C 90.078125 37.113281 89.238281 36.945312 88.566406 36.65625 C 87.851562 36.363281 87.222656 35.820312 86.675781 35.027344 Z M 88.0625 33.816406 " fill-opacity="1" fill-rule="nonzero"/><path fill="#eb2027" d="M 97.761719 33.816406 C 98.140625 34.277344 98.519531 34.652344 98.980469 34.902344 C 99.441406 35.195312 99.988281 35.320312 100.660156 35.320312 C 100.953125 35.320312 101.25 35.277344 101.542969 35.234375 C 101.835938 35.152344 102.089844 35.070312 102.339844 34.945312 C 102.59375 34.816406 102.761719 34.609375 102.929688 34.402344 C 103.054688 34.191406 103.136719 33.941406 103.136719 33.609375 C 103.136719 33.316406 103.054688 33.066406 102.929688 32.855469 C 102.800781 32.648438 102.59375 32.480469 102.382812 32.355469 C 102.171875 32.230469 101.921875 32.105469 101.625 32.023438 C 101.332031 31.9375 101.039062 31.855469 100.746094 31.8125 C 100.199219 31.6875 99.695312 31.5625 99.234375 31.4375 C 98.769531 31.3125 98.308594 31.101562 97.972656 30.894531 C 97.59375 30.644531 97.300781 30.351562 97.089844 29.976562 C 96.882812 29.601562 96.753906 29.140625 96.753906 28.558594 C 96.753906 28.015625 96.882812 27.511719 97.132812 27.136719 C 97.386719 26.71875 97.679688 26.386719 98.097656 26.09375 C 98.519531 25.800781 98.9375 25.636719 99.441406 25.46875 C 99.945312 25.34375 100.449219 25.257812 100.996094 25.257812 C 101.792969 25.257812 102.550781 25.425781 103.222656 25.71875 C 103.894531 26.050781 104.441406 26.554688 104.820312 27.261719 L 103.265625 28.308594 C 103.011719 27.890625 102.71875 27.597656 102.296875 27.347656 C 101.921875 27.097656 101.417969 26.972656 100.871094 26.972656 C 100.617188 26.972656 100.367188 27.011719 100.074219 27.054688 C 99.820312 27.136719 99.570312 27.222656 99.359375 27.347656 C 99.148438 27.472656 98.980469 27.640625 98.855469 27.847656 C 98.730469 28.054688 98.644531 28.265625 98.644531 28.515625 C 98.644531 28.765625 98.730469 28.972656 98.855469 29.140625 C 99.023438 29.308594 99.234375 29.476562 99.484375 29.601562 C 99.738281 29.726562 100.074219 29.851562 100.410156 29.933594 C 100.746094 30.019531 101.121094 30.101562 101.5 30.183594 C 102.003906 30.269531 102.464844 30.394531 102.929688 30.5625 C 103.390625 30.726562 103.769531 30.9375 104.105469 31.1875 C 104.441406 31.4375 104.691406 31.769531 104.902344 32.148438 C 105.113281 32.523438 105.195312 32.980469 105.195312 33.566406 C 105.195312 34.191406 105.070312 34.734375 104.820312 35.195312 C 104.566406 35.652344 104.230469 35.988281 103.808594 36.277344 C 103.390625 36.570312 102.886719 36.78125 102.382812 36.90625 C 101.835938 37.03125 101.289062 37.113281 100.746094 37.113281 C 99.777344 37.113281 98.9375 36.945312 98.265625 36.65625 C 97.554688 36.363281 96.921875 35.820312 96.378906 35.027344 Z M 97.761719 33.816406 " fill-opacity="1" fill-rule="nonzero"/><path fill="#eb2027" d="M 107.339844 25.550781 L 109.226562 25.550781 L 109.226562 36.78125 L 107.339844 36.78125 Z M 107.339844 25.550781 " fill-opacity="1" fill-rule="nonzero"/><path fill="#eb2027" d="M 112.585938 33.816406 C 112.964844 34.277344 113.34375 34.652344 113.804688 34.902344 C 114.269531 35.195312 114.8125 35.320312 115.484375 35.320312 C 115.78125 35.320312 116.074219 35.277344 116.367188 35.234375 C 116.660156 35.152344 116.914062 35.070312 117.164062 34.945312 C 117.417969 34.816406 117.585938 34.609375 117.753906 34.402344 C 117.921875 34.191406 117.964844 33.941406 117.964844 33.609375 C 117.964844 33.316406 117.878906 33.066406 117.753906 32.855469 C 117.628906 32.648438 117.417969 32.480469 117.207031 32.355469 C 116.996094 32.230469 116.746094 32.105469 116.453125 32.023438 C 116.15625 31.9375 115.863281 31.855469 115.570312 31.8125 C 115.023438 31.6875 114.519531 31.5625 114.058594 31.4375 C 113.597656 31.3125 113.132812 31.101562 112.796875 30.894531 C 112.417969 30.644531 112.125 30.351562 111.914062 29.976562 C 111.707031 29.601562 111.578125 29.140625 111.578125 28.558594 C 111.578125 28.015625 111.707031 27.511719 111.957031 27.136719 C 112.210938 26.71875 112.503906 26.386719 112.921875 26.09375 C 113.34375 25.800781 113.765625 25.636719 114.269531 25.46875 C 114.773438 25.34375 115.277344 25.257812 115.820312 25.257812 C 116.621094 25.257812 117.375 25.425781 118.046875 25.71875 C 118.71875 26.050781 119.265625 26.554688 119.644531 27.261719 L 118.089844 28.308594 C 117.835938 27.890625 117.542969 27.597656 117.125 27.347656 C 116.746094 27.097656 116.242188 26.972656 115.695312 26.972656 C 115.445312 26.972656 115.191406 27.011719 114.898438 27.054688 C 114.644531 27.136719 114.394531 27.222656 114.183594 27.347656 C 113.972656 27.472656 113.804688 27.640625 113.679688 27.847656 C 113.554688 28.054688 113.46875 28.265625 113.46875 28.515625 C 113.46875 28.765625 113.554688 28.972656 113.679688 29.140625 C 113.847656 29.308594 114.058594 29.476562 114.308594 29.601562 C 114.5625 29.726562 114.898438 29.851562 115.234375 29.933594 C 115.570312 30.019531 115.949219 30.101562 116.324219 30.183594 C 116.828125 30.269531 117.292969 30.394531 117.753906 30.5625 C 118.214844 30.726562 118.59375 30.9375 118.929688 31.1875 C 119.265625 31.4375 119.515625 31.769531 119.726562 32.148438 C 119.9375 32.523438 120.019531 32.980469 120.019531 33.566406 C 120.019531 34.191406 119.894531 34.734375 119.644531 35.195312 C 119.390625 35.652344 119.054688 35.988281 118.636719 36.277344 C 118.214844 36.570312 117.710938 36.78125 117.207031 36.90625 C 116.660156 37.03125 116.117188 37.113281 115.570312 37.113281 C 114.605469 37.113281 113.765625 36.945312 113.09375 36.65625 C 112.378906 36.363281 111.746094 35.820312 111.203125 35.027344 Z M 112.585938 33.816406 " fill-opacity="1" fill-rule="nonzero"/><path fill="#eb2027" d="M 128.210938 27.136719 L 124.894531 27.136719 L 124.894531 32.730469 C 124.894531 33.105469 124.894531 33.441406 124.933594 33.734375 C 124.933594 34.023438 125.019531 34.316406 125.144531 34.566406 C 125.269531 34.816406 125.4375 34.984375 125.648438 35.109375 C 125.859375 35.234375 126.195312 35.320312 126.613281 35.320312 C 126.910156 35.320312 127.160156 35.277344 127.453125 35.234375 C 127.75 35.152344 128 35.070312 128.292969 34.945312 L 128.378906 36.65625 C 128.042969 36.78125 127.707031 36.90625 127.285156 36.945312 C 126.910156 37.03125 126.53125 37.03125 126.152344 37.03125 C 125.480469 37.03125 124.933594 36.945312 124.558594 36.78125 C 124.136719 36.613281 123.84375 36.363281 123.632812 36.027344 C 123.421875 35.695312 123.253906 35.320312 123.171875 34.859375 C 123.085938 34.402344 123.046875 33.859375 123.046875 33.273438 L 123.046875 27.136719 L 120.566406 27.136719 L 120.566406 25.550781 L 123.046875 25.550781 L 123.046875 22.378906 L 124.933594 22.378906 L 124.933594 25.550781 L 128.253906 25.550781 L 128.253906 27.136719 Z M 128.210938 27.136719 " fill-opacity="1" fill-rule="nonzero"/><path fill="#eb2027" d="M 58.875 20.125 C 58.414062 20.125 58.035156 20.292969 57.699219 20.625 C 57.363281 20.960938 57.195312 21.335938 57.195312 21.796875 C 57.195312 22.253906 57.363281 22.628906 57.699219 22.964844 C 58.035156 23.296875 58.414062 23.464844 58.875 23.464844 C 59.335938 23.464844 59.714844 23.296875 60.050781 22.964844 C 60.386719 22.628906 60.554688 22.253906 60.554688 21.796875 C 60.554688 21.335938 60.386719 20.960938 60.050781 20.625 C 59.714844 20.292969 59.335938 20.125 58.875 20.125 Z M 58.875 20.125 " fill-opacity="1" fill-rule="nonzero"/><path fill="#eb2027" d="M 109.480469 20.625 C 109.144531 20.292969 108.765625 20.125 108.304688 20.125 C 107.84375 20.125 107.464844 20.292969 107.128906 20.625 C 106.792969 20.960938 106.625 21.335938 106.625 21.796875 C 106.625 22.253906 106.792969 22.628906 107.128906 22.964844 C 107.464844 23.296875 107.84375 23.464844 108.304688 23.464844 C 108.765625 23.464844 109.144531 23.296875 109.480469 22.964844 C 109.816406 22.628906 109.984375 22.253906 109.984375 21.796875 C 109.941406 21.335938 109.816406 20.960938 109.480469 20.625 Z M 109.480469 20.625 " fill-opacity="1" fill-rule="nonzero"/><path stroke-linecap="butt" transform="matrix(0.419966, 0, 0, 0.417411, 16.919542, 8.688419)" fill-opacity="1" fill="#faaf40" fill-rule="nonzero" stroke-linejoin="miter" d="M 35.704112 34.997798 C 35.89944 35.100739 36.10407 35.100739 36.299398 34.904215 C 36.504027 34.698333 36.597041 34.501809 36.80167 34.295926 C 37.201628 33.696996 37.703901 33.201006 38.103859 32.7986 C 38.59683 32.302611 39.099102 31.797263 39.70369 31.404215 C 40.503605 30.702343 41.396534 30.196996 42.401079 29.701006 C 43.200995 29.2986 44.103225 28.896194 44.996154 28.596728 C 45.600742 28.400204 46.103014 28.20368 46.6983 28.100739 C 47.498216 27.997798 48.298131 27.801274 49.098047 27.801274 C 49.897962 27.801274 50.800193 27.801274 51.600108 27.904215 C 52.502339 27.997798 53.302254 28.20368 54.10217 28.400204 C 54.902085 28.596728 55.702001 28.896194 56.501916 29.195659 C 57.404147 29.598065 58.204062 30.103413 59.003978 30.702343 C 59.701579 31.198333 60.296865 31.797263 60.901452 32.499135 L 61.003767 32.602076 C 61.09678 32.695659 61.09678 32.695659 61.199095 32.7986 C 61.99901 33.799937 63.301199 35.896194 63.896485 37.795926 C 64.603387 40.098065 64.798715 42.503146 64.398757 45.001809 C 64.203429 45.900204 63.896485 47.603413 63.096569 48.997798 C 63.003556 49.100739 62.901241 49.297263 62.901241 49.400205 C 62.901241 49.400205 62.901241 49.503146 62.798926 49.503146 C 57.999433 56.999135 51.897751 55.202344 49.39569 54.098066 C 44.800826 52.001809 43.796281 47.696996 44.298553 44.599402 C 44.903141 41.202343 47.200573 38.900204 50.195605 38.70368 C 50.50255 38.70368 50.595563 38.497798 50.595563 38.198333 C 50.595563 37.898867 50.400235 37.702343 50.102592 37.702343 C 46.6983 37.898867 44.00091 40.603413 43.396323 44.402878 C 42.801037 47.799937 44.00091 52.600739 49.098047 54.902878 C 50.800193 55.698333 52.400024 56.100739 53.999855 56.100739 C 55.999644 56.100739 57.999433 55.398868 59.803893 54.098066 C 60.696822 53.499135 61.403724 52.900205 62.20364 52.001809 C 62.398968 51.795926 62.501283 51.702344 62.603598 51.599402 C 63.003556 51.103413 63.301199 50.701007 63.598842 50.102076 C 63.701156 49.896194 63.803471 49.802611 63.896485 49.596729 C 63.998799 49.400205 64.101114 49.297263 64.203429 49.100739 C 64.203429 48.997798 64.296442 48.997798 64.398757 48.698333 C 64.798715 47.902878 65.096358 47.004483 65.300987 46.003146 C 65.496316 45.095392 65.59863 44.196996 65.700945 43.2986 C 65.80326 41.698333 65.700945 40.004482 65.300987 38.404215 C 65.198673 38.095392 65.096358 37.795926 65.096358 37.496461 C 64.6964 36.102076 64.101114 34.904215 63.496527 33.902878 C 63.403513 33.799937 63.403513 33.696996 63.301199 33.603413 C 63.198884 33.39753 63.096569 33.201006 62.901241 33.098065 C 62.20364 32.096728 61.403724 31.095391 60.399179 30.299937 C 59.301621 29.401541 58.101747 28.596728 56.799559 27.997798 C 55.804316 27.595391 54.79977 27.202343 53.702212 27.099402 C 53.004611 26.996461 52.297709 26.902878 51.600108 26.799937 C 50.595563 26.696996 49.702634 26.696996 48.698089 26.799937 C 47.795859 26.902878 46.90293 26.996461 46.000699 27.295926 C 45.703056 27.398867 45.396112 27.501808 45.098469 27.595391 C 44.698511 27.698333 42.996365 28.503145 42.19645 28.802611 C 42.001122 28.896194 41.796492 28.999135 41.601164 29.102076 C 41.303521 29.2986 40.996576 29.401541 40.801248 29.598065 C 39.201417 30.599402 37.796914 31.900204 36.597041 33.39753 C 36.401713 33.696996 36.197083 33.996461 36.001755 34.295926 C 35.397167 34.595391 35.499482 34.904215 35.704112 34.997798 Z M 35.704112 34.997798 " stroke="#faaf40" stroke-width="0.484" stroke-opacity="1" stroke-miterlimit="10"/><path stroke-linecap="butt" transform="matrix(0.419966, 0, 0, 0.417411, 16.919542, 8.688419)" fill-opacity="1" fill="#ffffff" fill-rule="nonzero" stroke-linejoin="miter" d="M 50.50255 65.795927 C 47.098258 63.503146 45.098469 60.602076 44.103225 56.503146 C 47.098258 59.900205 50.697878 60.396194 53.702212 60.396194 C 62.20364 60.396194 69.300565 52.497798 69.300565 43.195659 C 69.095936 35.802611 66.100903 29.598065 61.199095 26.004482 C 55.702001 22.102076 48.298131 21.802611 40.196661 25.199669 C 40.001333 25.302611 39.796703 25.602076 39.899018 25.7986 C 40.001333 26.098065 40.298976 26.201006 40.503605 26.098065 C 48.298131 22.803947 55.404358 23.103413 60.696822 26.799937 C 65.403302 30.196996 68.203007 36.102076 68.398335 43.195659 C 68.398335 52.001809 61.701367 59.404215 53.702212 59.404215 C 50.50255 59.404215 46.595985 58.795927 43.703267 54.397531 C 43.600953 54.201007 43.30331 54.098066 43.200995 54.201007 C 42.996365 54.303948 42.903352 54.500472 42.903352 54.696996 C 43.498638 58.496461 44.800826 61.500472 46.90293 63.896194 C 45.79607 63.10074 44.903141 62.202344 44.00091 61.201007 C 43.09868 60.096729 42.19645 58.898868 41.601164 57.598066 C 41.303521 56.999135 40.903563 56.100739 40.596619 55.202344 C 40.503605 54.996461 40.503605 54.799937 40.40129 54.603413 C 40.103647 53.695659 39.899018 52.797263 39.796703 51.795926 C 39.70369 51.196996 39.601375 50.598066 39.601375 49.999135 C 39.601375 48.997798 39.601375 47.996461 39.70369 47.004483 C 39.899018 45.70368 40.196661 44.103413 40.40129 43.504483 C 40.596619 42.802611 40.801248 42.20368 41.098891 41.595392 C 41.796492 40.303948 42.596408 39.096728 43.703267 38.198333 C 45.303099 36.803948 47.098258 35.999135 49.200362 35.802611 C 50.195605 35.69967 51.097836 35.69967 52.102381 35.896194 C 53.302254 36.195659 55.0044 36.701006 56.204273 38.301274 C 56.697245 39.003146 57.097202 39.7986 57.301832 40.902878 C 57.49716 41.698333 57.49716 42.400204 57.49716 43.102076 L 57.49716 43.195659 C 57.49716 43.504483 57.404147 43.803948 57.404147 44.103413 C 57.301832 44.402878 57.199517 44.795926 57.097202 45.095392 C 56.697245 46.003146 56.204273 46.302611 56.204273 46.302611 L 56.101959 46.396194 C 55.702001 46.695659 55.302043 46.901541 54.902085 47.098065 C 54.297498 47.303948 53.702212 47.303948 53.004611 47.098065 C 52.697667 47.004483 52.400024 46.901541 52.195394 46.602076 L 52.297709 46.602076 C 52.902296 46.7986 53.404569 46.7986 53.999855 46.499135 C 54.697456 46.19967 55.097413 45.600739 55.302043 44.795926 C 55.497371 43.803948 55.097413 42.400204 54.297498 41.801274 C 53.599897 41.295926 52.902296 41.099402 52.195394 41.099402 C 50.902507 41.099402 49.200362 41.904215 48.195816 43.504483 C 47.200573 45.095392 47.200573 47.004483 48.102803 48.997798 C 48.195816 49.20368 48.195816 49.297263 48.400446 49.503146 C 49.498005 50.897531 51.097836 51.795926 52.697667 52.095392 C 53.599897 52.301274 54.502127 52.198333 55.404358 52.095392 C 56.399602 51.898868 57.404147 51.496461 58.204062 50.897531 C 59.403936 50.102076 60.296865 48.997798 61.003767 47.696996 L 61.003767 47.603413 C 61.09678 47.397531 61.09678 47.303948 61.199095 47.098065 C 61.199095 47.004483 61.30141 46.901541 61.30141 46.7986 L 61.30141 46.695659 C 61.99901 44.702343 61.99901 42.896194 61.896696 41.595392 C 61.896696 41.595392 61.896696 41.595392 61.896696 41.501809 L 61.896696 41.398868 C 61.896696 41.295926 61.896696 41.295926 61.896696 41.202343 C 61.496738 37.496461 60.101536 35.503145 59.403936 34.801274 L 58.697033 34.099402 C 57.897118 33.201006 56.901874 32.695659 55.804316 32.096728 C 54.902085 31.70368 53.999855 31.301274 53.004611 31.198333 C 52.297709 31.095391 51.600108 30.898867 50.902507 30.898867 C 50.102592 30.898867 49.39569 30.898867 48.595774 30.898867 C 47.795859 30.898867 46.995943 31.095391 46.298342 31.301274 C 45.703056 31.497798 45.200784 31.70368 44.596196 31.900204 C 44.503183 31.900204 44.400868 32.003145 44.298553 32.003145 C 43.30331 32.499135 42.298765 33.004482 41.498849 33.696996 C 41.498849 33.696996 41.396534 33.696996 41.396534 33.799937 C 40.40129 34.595391 39.49906 35.503145 38.699145 36.504482 C 37.703901 37.795926 36.903985 39.302611 36.299398 40.902878 C 35.797125 42.20368 35.499482 43.598065 35.304154 45.001809 C 35.099524 46.19967 34.99721 47.397531 34.99721 48.595392 C 34.99721 49.802611 34.99721 51.000472 35.201839 52.198333 C 35.304154 52.797263 35.397167 53.396194 35.499482 53.901542 C 35.704112 54.799937 35.89944 55.698333 36.197083 56.596729 C 36.299398 57.102076 36.504027 57.598066 36.699356 58.103413 C 36.699356 58.196996 36.80167 58.299937 36.80167 58.402878 C 37.099313 59.404215 38.103859 61.201007 38.503816 61.799937 C 38.801459 62.295927 39.201417 62.904215 39.49906 63.400205 C 40.196661 64.401542 41.098891 65.402879 42.001122 66.198333 C 42.19645 66.404216 42.503394 66.404216 42.698722 66.198333 C 42.903352 66.001809 42.903352 65.795927 42.596408 65.496461 C 41.898807 64.803948 41.303521 63.999135 40.596619 63.297264 C 40.103647 62.595392 39.601375 61.902879 39.099102 61.201007 C 38.699145 60.499135 38.001544 59.095392 37.499271 58.103413 C 37.303943 57.701007 37.201628 57.2986 37.099313 56.999135 C 36.699356 55.698333 36.299398 54.397531 36.10407 53.096729 C 36.001755 52.404215 35.89944 51.702344 35.89944 51.103413 C 35.797125 50.195659 35.797125 48.801274 35.89944 47.799937 C 35.89944 47.397531 36.001755 47.004483 36.001755 46.602076 C 36.10407 45.900204 36.197083 45.301274 36.299398 44.599402 C 36.504027 43.701007 36.699356 42.896194 36.903985 42.100739 C 37.201628 41.202343 37.499271 40.397531 37.899229 39.695659 C 38.503816 38.600739 39.201417 37.599402 40.001333 36.701006 C 40.196661 36.401541 40.503605 36.195659 40.801248 35.999135 C 40.903563 35.896194 40.903563 35.896194 40.996576 35.802611 C 41.303521 35.596728 41.498849 35.297263 41.796492 35.100739 C 43.09868 34.099402 44.503183 33.303948 46.196028 32.7986 C 46.800615 32.602076 47.498216 32.396194 48.102803 32.396194 C 48.800404 32.302611 49.498005 32.302611 50.195605 32.302611 C 50.995521 32.302611 51.897751 32.396194 52.697667 32.602076 C 53.404569 32.7986 53.999855 32.901541 54.697456 33.201006 C 55.404358 33.500472 56.101959 33.902878 56.697245 34.295926 C 57.404147 34.801274 58.101747 35.400204 58.697033 36.195659 C 59.096991 36.803948 60.399179 38.600739 60.901452 40.996461 C 61.003767 41.501809 61.30141 44.000472 59.999222 47.004483 L 59.896907 47.098065 C 59.599264 47.603413 59.403936 47.996461 59.003978 48.501809 C 57.804104 49.896194 56.297287 50.803948 54.604442 51.000472 C 53.804527 51.103413 53.097625 51.103413 52.297709 50.897531 C 51.497793 50.701007 50.697878 50.401541 50.000277 49.896194 C 49.39569 49.400205 48.995732 48.904215 48.595774 48.295926 C 47.60053 46.19967 48.102803 44.795926 48.595774 43.897531 C 49.498005 42.503146 51.097836 41.801274 52.195394 41.997798 L 52.297709 41.997798 C 52.502339 41.997798 52.697667 42.100739 52.799982 42.100739 C 53.599897 42.400204 53.999855 42.896194 54.10217 43.803948 C 54.204484 44.599402 53.89754 45.301274 53.097625 45.600739 C 52.595352 45.797263 52.102381 45.600739 51.795436 45.198333 C 51.497793 44.795926 51.395479 44.196996 51.795436 43.701007 C 51.897751 43.598065 51.897751 43.504483 51.795436 43.2986 C 51.702423 43.195659 51.600108 43.102076 51.395479 43.195659 C 50.902507 43.504483 50.697878 43.897531 50.50255 44.402878 C 50.29792 45.404215 50.697878 46.695659 51.497793 47.303948 C 52.102381 47.799937 52.697667 47.902878 53.497582 47.996461 C 54.604442 47.996461 55.497371 47.696996 56.297287 47.098065 L 56.399602 47.004483 C 56.399602 47.004483 59.003978 45.301274 57.999433 40.603413 C 57.199517 37.103413 55.0044 35.802611 53.199939 35.20368 C 52.799982 34.997798 52.400024 34.904215 51.897751 34.801274 C 51.795436 34.801274 51.795436 34.801274 51.702423 34.801274 C 51.302465 34.698333 50.800193 34.698333 50.400235 34.698333 L 50.29792 34.698333 C 50.29792 34.698333 50.29792 34.698333 50.195605 34.698333 C 49.498005 34.698333 48.902719 34.698333 48.400446 34.801274 C 47.898173 34.904215 47.498216 34.904215 47.098258 35.100739 C 46.103014 35.400204 45.098469 35.802611 44.196239 36.401541 C 43.200995 37.000472 42.19645 37.898867 41.396534 38.797263 C 40.698933 39.695659 40.103647 40.603413 39.601375 41.698333 C 39.303732 42.400204 39.099102 43.102076 38.903774 43.803948 C 38.59683 44.795926 38.196872 47.201007 38.299187 48.595392 C 38.299187 50.2986 38.503816 52.001809 38.903774 53.695659 C 38.996787 54.201007 39.201417 54.696996 39.303732 55.202344 C 39.303732 55.202344 39.303732 55.295927 39.396745 55.501809 C 39.49906 55.801274 39.601375 56.100739 39.70369 56.400205 C 39.70369 56.503146 39.796703 56.503146 39.796703 56.596729 C 39.899018 56.802611 40.001333 56.999135 40.001333 57.195659 C 40.001333 57.2986 40.103647 57.401542 40.103647 57.504483 C 40.40129 58.103413 40.698933 58.795927 41.098891 59.301274 C 41.601164 60.19967 42.298765 61.098066 42.903352 61.902879 C 43.898596 62.997798 44.996154 64.102076 46.196028 64.897531 C 46.595985 65.103413 46.90293 65.402879 47.302887 65.599403 C 47.302887 65.599403 47.395901 65.599403 47.395901 65.702344 C 47.498216 65.702344 47.498216 65.795927 47.60053 65.795927 C 47.898173 66.001809 48.298131 66.198333 48.595774 66.301274 C 49.098047 66.60074 49.600319 66.797264 49.897962 66.900205 C 50.000277 66.900205 50.000277 66.900205 50.102592 66.900205 C 50.29792 66.900205 50.400235 66.797264 50.50255 66.60074 C 50.800193 66.198333 50.697878 65.898868 50.50255 65.795927 Z M 50.50255 65.795927 " stroke="#ffffff" stroke-width="0.484" stroke-opacity="1" stroke-miterlimit="10"/><path stroke-linecap="butt" transform="matrix(0.419966, 0, 0, 0.417411, 16.919542, 8.688419)" fill-opacity="1" fill="#ffffff" fill-rule="nonzero" stroke-linejoin="miter" d="M 67.896062 55.099402 C 63.701156 61.500472 57.599475 64.2986 51.395479 62.595392 C 51.20015 62.501809 50.902507 62.698333 50.902507 62.904215 C 50.800193 63.10074 50.902507 63.400205 51.097836 63.503146 C 51.097836 63.503146 54.502127 65.299937 55.404358 67.396194 C 55.497371 67.602076 55.599686 67.695659 55.804316 67.695659 C 55.897329 67.695659 55.897329 67.695659 55.999644 67.695659 C 56.204273 67.602076 56.297287 67.302611 56.204273 67.003146 C 55.702001 65.795927 54.604442 64.803948 53.599897 63.999135 C 59.301621 64.598066 64.798715 61.603413 68.695978 55.595392 C 68.798293 55.398868 68.798293 55.099402 68.602964 54.902878 C 68.398335 54.799937 68.100692 54.902878 67.896062 55.099402 Z M 67.896062 55.099402 " stroke="#ffffff" stroke-width="0.484" stroke-opacity="1" stroke-miterlimit="10"/><path stroke-linecap="butt" transform="matrix(0.419966, 0, 0, 0.417411, 16.919542, 8.688419)" fill-opacity="1" fill="#ffffff" fill-rule="nonzero" stroke-linejoin="miter" d="M 66.500861 62.501809 C 64.501072 64.2986 62.101325 65.496461 59.599264 65.898868 C 59.403936 65.898868 59.199306 66.198333 59.199306 66.497798 C 59.199306 66.703681 59.403936 66.900205 59.701579 66.900205 C 59.701579 66.900205 59.701579 66.900205 59.803893 66.900205 C 62.501283 66.404216 65.003344 65.196996 67.198462 63.297264 C 67.403091 63.10074 67.403091 62.801274 67.300776 62.595392 C 67.003133 62.295927 66.696189 62.295927 66.500861 62.501809 Z M 66.500861 62.501809 " stroke="#ffffff" stroke-width="0.484" stroke-opacity="1" stroke-miterlimit="10"/><path fill="#eb2027" d="M 131.484375 24.84375 C 131.191406 25.132812 130.855469 25.257812 130.476562 25.257812 C 130.101562 25.257812 129.765625 25.132812 129.46875 24.84375 C 129.175781 24.550781 129.050781 24.214844 129.050781 23.839844 C 129.050781 23.464844 129.175781 23.128906 129.46875 22.839844 C 129.765625 22.546875 130.101562 22.421875 130.476562 22.421875 C 130.855469 22.421875 131.191406 22.546875 131.484375 22.839844 C 131.78125 23.128906 131.90625 23.464844 131.90625 23.839844 C 131.90625 24.214844 131.78125 24.550781 131.484375 24.84375 Z M 129.597656 22.964844 C 129.34375 23.214844 129.21875 23.507812 129.21875 23.839844 C 129.21875 24.175781 129.34375 24.464844 129.554688 24.71875 C 129.804688 24.96875 130.101562 25.09375 130.4375 25.09375 C 130.773438 25.09375 131.066406 24.96875 131.316406 24.71875 C 131.570312 24.464844 131.695312 24.175781 131.695312 23.839844 C 131.695312 23.507812 131.570312 23.214844 131.316406 22.964844 C 131.066406 22.714844 130.773438 22.589844 130.4375 22.589844 C 130.140625 22.628906 129.847656 22.714844 129.597656 22.964844 Z M 130.4375 23.046875 C 130.644531 23.046875 130.773438 23.046875 130.855469 23.089844 C 131.023438 23.171875 131.109375 23.296875 131.109375 23.464844 C 131.109375 23.589844 131.066406 23.714844 130.941406 23.757812 C 130.898438 23.796875 130.8125 23.796875 130.730469 23.839844 C 130.855469 23.839844 130.941406 23.925781 130.980469 24.007812 C 131.023438 24.089844 131.066406 24.175781 131.066406 24.257812 L 131.066406 24.382812 C 131.066406 24.425781 131.066406 24.464844 131.066406 24.507812 C 131.066406 24.550781 131.066406 24.589844 131.066406 24.589844 L 130.8125 24.589844 L 130.8125 24.425781 C 130.8125 24.257812 130.773438 24.132812 130.644531 24.050781 C 130.605469 24.007812 130.476562 24.007812 130.351562 24.007812 L 130.140625 24.007812 L 130.140625 24.632812 L 129.890625 24.632812 L 129.890625 23.089844 L 130.4375 23.089844 Z M 130.730469 23.296875 C 130.644531 23.257812 130.5625 23.257812 130.394531 23.257812 L 130.140625 23.257812 L 130.140625 23.839844 L 130.394531 23.839844 C 130.519531 23.839844 130.605469 23.839844 130.644531 23.796875 C 130.773438 23.757812 130.8125 23.671875 130.8125 23.546875 C 130.855469 23.421875 130.8125 23.339844 130.730469 23.296875 Z M 130.730469 23.296875 " fill-opacity="1" fill-rule="nonzero"/></svg>