<svg xmlns="http://www.w3.org/2000/svg" xmlns:xlink="http://www.w3.org/1999/xlink" width="600" zoomAndPan="magnify" viewBox="0 0 450 41.25" height="55" preserveAspectRatio="xMidYMid meet" version="1.0"><defs><clipPath id="e5f7dcefa8"><path d="M 22.433594 15 L 48 15 L 48 40.398438 L 22.433594 40.398438 Z M 22.433594 15 " clip-rule="nonzero"/></clipPath><clipPath id="64f8e8beb2"><path d="M 125 22 L 128.503906 22 L 128.503906 26 L 125 26 Z M 125 22 " clip-rule="nonzero"/></clipPath></defs><g clip-path="url(#e5f7dcefa8)"><path fill="#ffffff" d="M 35.160156 40.035156 C 37.71875 40.035156 40.242188 40.035156 42.800781 40.035156 C 45.40625 40.035156 47.839844 37.699219 47.839844 35.109375 C 47.882812 30.101562 47.882812 25.132812 47.839844 20.125 C 47.839844 17.539062 45.40625 15.242188 42.800781 15.242188 C 37.71875 15.242188 32.640625 15.242188 27.558594 15.242188 C 24.828125 15.242188 22.433594 17.621094 22.433594 20.335938 C 22.433594 25.21875 22.433594 30.101562 22.433594 34.984375 C 22.433594 37.65625 24.828125 40.035156 27.515625 40.035156 C 30.078125 40.035156 32.597656 40.035156 35.160156 40.035156 Z M 35.160156 40.035156 " fill-opacity="1" fill-rule="nonzero"/><path fill="#e8272e" d="M 35.160156 40.035156 C 32.640625 40.035156 30.078125 40.035156 27.558594 40.035156 C 24.871094 40.035156 22.476562 37.65625 22.476562 34.984375 C 22.476562 30.101562 22.476562 25.21875 22.476562 20.335938 C 22.476562 17.621094 24.871094 15.242188 27.597656 15.242188 C 32.679688 15.242188 37.761719 15.242188 42.84375 15.242188 C 45.40625 15.242188 47.839844 17.578125 47.882812 20.125 C 47.925781 25.132812 47.925781 30.101562 47.882812 35.109375 C 47.882812 37.699219 45.449219 40.035156 42.84375 40.035156 C 40.242188 40.035156 37.679688 40.035156 35.160156 40.035156 Z M 35.160156 40.035156 " fill-opacity="1" fill-rule="nonzero"/></g><path fill="#59595c" d="M 54.265625 25.550781 L 56.15625 25.550781 L 56.15625 36.78125 L 54.265625 36.78125 Z M 54.265625 25.550781 " fill-opacity="1" fill-rule="nonzero"/><path fill="#59595c" d="M 68.085938 34.777344 L 68.042969 34.777344 C 67.707031 35.402344 67.117188 35.945312 66.363281 36.40625 C 65.605469 36.863281 64.722656 37.074219 63.714844 37.074219 C 62.917969 37.074219 62.203125 36.90625 61.492188 36.613281 C 60.820312 36.320312 60.1875 35.902344 59.683594 35.359375 C 59.179688 34.816406 58.761719 34.191406 58.507812 33.484375 C 58.214844 32.773438 58.089844 31.980469 58.089844 31.144531 C 58.089844 30.308594 58.214844 29.515625 58.507812 28.808594 C 58.804688 28.097656 59.179688 27.472656 59.726562 26.929688 C 60.230469 26.386719 60.859375 26.011719 61.617188 25.675781 C 62.332031 25.386719 63.171875 25.21875 64.050781 25.21875 C 64.890625 25.21875 65.605469 25.386719 66.320312 25.71875 C 66.992188 26.050781 67.621094 26.511719 68.125 27.136719 L 68.167969 27.136719 L 68.167969 18.664062 L 70.058594 18.664062 L 70.058594 36.78125 L 68.167969 36.78125 L 68.167969 34.777344 C 68.167969 34.777344 68.085938 34.777344 68.085938 34.777344 Z M 68.085938 31.1875 C 68.085938 30.601562 68 30.058594 67.789062 29.558594 C 67.621094 29.058594 67.328125 28.597656 66.992188 28.222656 C 66.65625 27.847656 66.234375 27.554688 65.730469 27.347656 C 65.226562 27.136719 64.683594 27.011719 64.09375 27.011719 C 63.464844 27.011719 62.917969 27.136719 62.457031 27.347656 C 61.953125 27.554688 61.53125 27.847656 61.195312 28.222656 C 60.859375 28.597656 60.566406 29.058594 60.398438 29.558594 C 60.230469 30.058594 60.105469 30.601562 60.105469 31.1875 C 60.105469 31.769531 60.1875 32.3125 60.398438 32.816406 C 60.566406 33.316406 60.859375 33.773438 61.195312 34.152344 C 61.53125 34.527344 61.953125 34.816406 62.457031 35.027344 C 62.960938 35.234375 63.507812 35.359375 64.09375 35.359375 C 64.722656 35.359375 65.269531 35.234375 65.730469 35.027344 C 66.234375 34.816406 66.65625 34.527344 66.992188 34.152344 C 67.328125 33.773438 67.621094 33.316406 67.789062 32.816406 C 68 32.3125 68.085938 31.769531 68.085938 31.1875 Z M 68.085938 31.1875 " fill-opacity="1" fill-rule="nonzero"/><path fill="#eb2027" d="M 72.074219 27.011719 C 72.660156 26.429688 73.332031 25.96875 74.132812 25.71875 C 74.929688 25.425781 75.726562 25.300781 76.566406 25.300781 C 78.246094 25.300781 79.464844 25.675781 80.179688 26.46875 C 80.933594 27.261719 81.269531 28.433594 81.269531 30.058594 L 81.269531 34.859375 C 81.269531 35.195312 81.269531 35.527344 81.3125 35.863281 C 81.355469 36.195312 81.398438 36.53125 81.4375 36.820312 L 79.632812 36.820312 C 79.550781 36.570312 79.550781 36.277344 79.507812 35.988281 C 79.507812 35.695312 79.507812 35.402344 79.507812 35.152344 L 79.464844 35.152344 C 79.085938 35.738281 78.582031 36.195312 77.996094 36.570312 C 77.367188 36.945312 76.652344 37.113281 75.769531 37.113281 C 75.179688 37.113281 74.636719 37.03125 74.132812 36.90625 C 73.628906 36.78125 73.164062 36.53125 72.789062 36.277344 C 72.410156 35.988281 72.117188 35.652344 71.863281 35.234375 C 71.652344 34.816406 71.527344 34.359375 71.527344 33.816406 C 71.527344 32.898438 71.78125 32.148438 72.242188 31.644531 C 72.703125 31.101562 73.332031 30.726562 74.046875 30.476562 C 74.761719 30.226562 75.515625 30.058594 76.359375 30.019531 C 77.199219 29.933594 77.953125 29.933594 78.625 29.933594 L 79.339844 29.933594 L 79.339844 29.601562 C 79.339844 28.765625 79.085938 28.179688 78.582031 27.765625 C 78.078125 27.347656 77.40625 27.136719 76.527344 27.136719 C 75.894531 27.136719 75.308594 27.222656 74.71875 27.429688 C 74.132812 27.640625 73.628906 27.929688 73.164062 28.347656 Z M 77.535156 31.394531 C 76.316406 31.394531 75.347656 31.5625 74.675781 31.894531 C 73.964844 32.230469 73.628906 32.773438 73.628906 33.566406 C 73.628906 34.277344 73.878906 34.777344 74.339844 35.070312 C 74.804688 35.359375 75.390625 35.527344 76.105469 35.527344 C 76.652344 35.527344 77.113281 35.445312 77.535156 35.234375 C 77.953125 35.070312 78.289062 34.816406 78.542969 34.484375 C 78.835938 34.191406 79.003906 33.816406 79.171875 33.398438 C 79.296875 32.980469 79.382812 32.5625 79.421875 32.105469 L 79.421875 31.394531 C 79.421875 31.394531 77.535156 31.394531 77.535156 31.394531 Z M 77.535156 31.394531 " fill-opacity="1" fill-rule="nonzero"/><path fill="#eb2027" d="M 84.378906 33.816406 C 84.757812 34.277344 85.132812 34.652344 85.597656 34.902344 C 86.058594 35.195312 86.605469 35.320312 87.277344 35.320312 C 87.570312 35.320312 87.863281 35.277344 88.160156 35.234375 C 88.453125 35.152344 88.703125 35.070312 88.957031 34.945312 C 89.207031 34.816406 89.375 34.609375 89.542969 34.402344 C 89.671875 34.191406 89.753906 33.941406 89.753906 33.609375 C 89.753906 33.316406 89.671875 33.066406 89.542969 32.855469 C 89.417969 32.648438 89.207031 32.480469 89 32.355469 C 88.789062 32.230469 88.535156 32.105469 88.242188 32.023438 C 87.949219 31.9375 87.65625 31.855469 87.359375 31.8125 C 86.816406 31.6875 86.3125 31.5625 85.847656 31.4375 C 85.386719 31.3125 84.925781 31.101562 84.589844 30.894531 C 84.210938 30.644531 83.917969 30.351562 83.707031 29.976562 C 83.496094 29.601562 83.371094 29.140625 83.371094 28.558594 C 83.371094 28.015625 83.496094 27.511719 83.75 27.136719 C 84 26.71875 84.292969 26.386719 84.714844 26.09375 C 85.132812 25.800781 85.554688 25.636719 86.058594 25.46875 C 86.5625 25.34375 87.066406 25.257812 87.613281 25.257812 C 88.410156 25.257812 89.167969 25.425781 89.839844 25.71875 C 90.511719 26.050781 91.054688 26.554688 91.433594 27.261719 L 89.878906 28.308594 C 89.628906 27.890625 89.335938 27.597656 88.914062 27.347656 C 88.535156 27.097656 88.03125 26.972656 87.488281 26.972656 C 87.234375 26.972656 86.984375 27.011719 86.6875 27.054688 C 86.4375 27.136719 86.183594 27.222656 85.976562 27.347656 C 85.765625 27.472656 85.597656 27.640625 85.46875 27.847656 C 85.34375 28.054688 85.261719 28.265625 85.261719 28.515625 C 85.261719 28.765625 85.34375 28.972656 85.46875 29.140625 C 85.636719 29.308594 85.847656 29.476562 86.101562 29.601562 C 86.351562 29.726562 86.6875 29.851562 87.023438 29.933594 C 87.359375 30.019531 87.738281 30.101562 88.117188 30.183594 C 88.621094 30.269531 89.082031 30.394531 89.542969 30.5625 C 90.007812 30.726562 90.382812 30.9375 90.71875 31.1875 C 91.054688 31.4375 91.308594 31.769531 91.519531 32.148438 C 91.726562 32.523438 91.8125 32.980469 91.8125 33.566406 C 91.8125 34.191406 91.6875 34.734375 91.433594 35.195312 C 91.183594 35.652344 90.847656 35.988281 90.425781 36.277344 C 90.007812 36.570312 89.503906 36.78125 89 36.90625 C 88.453125 37.03125 87.90625 37.113281 87.359375 37.113281 C 86.394531 37.113281 85.554688 36.945312 84.882812 36.65625 C 84.167969 36.363281 83.539062 35.820312 82.992188 35.027344 Z M 84.378906 33.816406 " fill-opacity="1" fill-rule="nonzero"/><path fill="#eb2027" d="M 94.078125 33.816406 C 94.457031 34.277344 94.835938 34.652344 95.296875 34.902344 C 95.761719 35.195312 96.304688 35.320312 96.976562 35.320312 C 97.273438 35.320312 97.566406 35.277344 97.859375 35.234375 C 98.152344 35.152344 98.40625 35.070312 98.65625 34.945312 C 98.910156 34.816406 99.078125 34.609375 99.246094 34.402344 C 99.371094 34.191406 99.457031 33.941406 99.457031 33.609375 C 99.457031 33.316406 99.371094 33.066406 99.246094 32.855469 C 99.121094 32.648438 98.910156 32.480469 98.699219 32.355469 C 98.488281 32.230469 98.238281 32.105469 97.945312 32.023438 C 97.648438 31.9375 97.355469 31.855469 97.0625 31.8125 C 96.515625 31.6875 96.011719 31.5625 95.550781 31.4375 C 95.089844 31.3125 94.625 31.101562 94.289062 30.894531 C 93.910156 30.644531 93.617188 30.351562 93.40625 29.976562 C 93.199219 29.601562 93.070312 29.140625 93.070312 28.558594 C 93.070312 28.015625 93.199219 27.511719 93.449219 27.136719 C 93.703125 26.71875 93.996094 26.386719 94.414062 26.09375 C 94.835938 25.800781 95.257812 25.636719 95.761719 25.46875 C 96.265625 25.34375 96.769531 25.257812 97.3125 25.257812 C 98.113281 25.257812 98.867188 25.425781 99.539062 25.71875 C 100.210938 26.050781 100.757812 26.554688 101.136719 27.261719 L 99.582031 28.308594 C 99.328125 27.890625 99.035156 27.597656 98.617188 27.347656 C 98.238281 27.097656 97.734375 26.972656 97.1875 26.972656 C 96.9375 26.972656 96.683594 27.011719 96.390625 27.054688 C 96.136719 27.136719 95.886719 27.222656 95.675781 27.347656 C 95.464844 27.472656 95.296875 27.640625 95.171875 27.847656 C 95.046875 28.054688 94.960938 28.265625 94.960938 28.515625 C 94.960938 28.765625 95.046875 28.972656 95.171875 29.140625 C 95.339844 29.308594 95.550781 29.476562 95.800781 29.601562 C 96.054688 29.726562 96.390625 29.851562 96.726562 29.933594 C 97.0625 30.019531 97.441406 30.101562 97.816406 30.183594 C 98.320312 30.269531 98.785156 30.394531 99.246094 30.5625 C 99.707031 30.726562 100.085938 30.9375 100.421875 31.1875 C 100.757812 31.4375 101.007812 31.769531 101.21875 32.148438 C 101.429688 32.523438 101.511719 32.980469 101.511719 33.566406 C 101.511719 34.191406 101.386719 34.734375 101.136719 35.195312 C 100.882812 35.652344 100.546875 35.988281 100.128906 36.277344 C 99.707031 36.570312 99.203125 36.78125 98.699219 36.90625 C 98.152344 37.03125 97.609375 37.113281 97.0625 37.113281 C 96.097656 37.113281 95.257812 36.945312 94.582031 36.65625 C 93.871094 36.363281 93.238281 35.820312 92.695312 35.027344 Z M 94.078125 33.816406 " fill-opacity="1" fill-rule="nonzero"/><path fill="#eb2027" d="M 103.65625 25.550781 L 105.546875 25.550781 L 105.546875 36.78125 L 103.65625 36.78125 Z M 103.65625 25.550781 " fill-opacity="1" fill-rule="nonzero"/><path fill="#eb2027" d="M 108.90625 33.816406 C 109.28125 34.277344 109.660156 34.652344 110.121094 34.902344 C 110.585938 35.195312 111.128906 35.320312 111.800781 35.320312 C 112.097656 35.320312 112.390625 35.277344 112.683594 35.234375 C 112.976562 35.152344 113.230469 35.070312 113.484375 34.945312 C 113.734375 34.816406 113.902344 34.609375 114.070312 34.402344 C 114.238281 34.191406 114.28125 33.941406 114.28125 33.609375 C 114.28125 33.316406 114.195312 33.066406 114.070312 32.855469 C 113.945312 32.648438 113.734375 32.480469 113.523438 32.355469 C 113.3125 32.230469 113.0625 32.105469 112.769531 32.023438 C 112.472656 31.9375 112.179688 31.855469 111.886719 31.8125 C 111.339844 31.6875 110.835938 31.5625 110.375 31.4375 C 109.914062 31.3125 109.449219 31.101562 109.113281 30.894531 C 108.738281 30.644531 108.441406 30.351562 108.234375 29.976562 C 108.023438 29.601562 107.898438 29.140625 107.898438 28.558594 C 107.898438 28.015625 108.023438 27.511719 108.273438 27.136719 C 108.527344 26.71875 108.820312 26.386719 109.242188 26.09375 C 109.660156 25.800781 110.082031 25.636719 110.585938 25.46875 C 111.089844 25.34375 111.59375 25.257812 112.136719 25.257812 C 112.9375 25.257812 113.691406 25.425781 114.363281 25.71875 C 115.035156 26.050781 115.582031 26.554688 115.960938 27.261719 L 114.40625 28.308594 C 114.15625 27.890625 113.859375 27.597656 113.441406 27.347656 C 113.0625 27.097656 112.558594 26.972656 112.011719 26.972656 C 111.761719 26.972656 111.507812 27.011719 111.214844 27.054688 C 110.960938 27.136719 110.710938 27.222656 110.5 27.347656 C 110.289062 27.472656 110.121094 27.640625 109.996094 27.847656 C 109.871094 28.054688 109.785156 28.265625 109.785156 28.515625 C 109.785156 28.765625 109.871094 28.972656 109.996094 29.140625 C 110.164062 29.308594 110.375 29.476562 110.625 29.601562 C 110.878906 29.726562 111.214844 29.851562 111.550781 29.933594 C 111.886719 30.019531 112.265625 30.101562 112.640625 30.183594 C 113.144531 30.269531 113.609375 30.394531 114.070312 30.5625 C 114.53125 30.726562 114.910156 30.9375 115.246094 31.1875 C 115.582031 31.4375 115.835938 31.769531 116.042969 32.148438 C 116.253906 32.523438 116.339844 32.980469 116.339844 33.566406 C 116.339844 34.191406 116.210938 34.734375 115.960938 35.195312 C 115.707031 35.652344 115.371094 35.988281 114.953125 36.277344 C 114.53125 36.570312 114.027344 36.78125 113.523438 36.90625 C 112.976562 37.03125 112.433594 37.113281 111.886719 37.113281 C 110.921875 37.113281 110.082031 36.945312 109.410156 36.65625 C 108.695312 36.363281 108.066406 35.820312 107.519531 35.027344 Z M 108.90625 33.816406 " fill-opacity="1" fill-rule="nonzero"/><path fill="#eb2027" d="M 124.527344 27.136719 L 121.210938 27.136719 L 121.210938 32.730469 C 121.210938 33.105469 121.210938 33.441406 121.25 33.734375 C 121.25 34.023438 121.335938 34.316406 121.460938 34.566406 C 121.585938 34.816406 121.753906 34.984375 121.964844 35.109375 C 122.175781 35.234375 122.511719 35.320312 122.933594 35.320312 C 123.226562 35.320312 123.476562 35.277344 123.773438 35.234375 C 124.066406 35.152344 124.316406 35.070312 124.613281 34.945312 L 124.695312 36.65625 C 124.359375 36.78125 124.023438 36.90625 123.605469 36.945312 C 123.226562 37.03125 122.847656 37.03125 122.46875 37.03125 C 121.796875 37.03125 121.25 36.945312 120.875 36.78125 C 120.453125 36.613281 120.160156 36.363281 119.949219 36.027344 C 119.738281 35.695312 119.570312 35.320312 119.488281 34.859375 C 119.402344 34.402344 119.363281 33.859375 119.363281 33.273438 L 119.363281 27.136719 L 116.882812 27.136719 L 116.882812 25.550781 L 119.363281 25.550781 L 119.363281 22.378906 L 121.25 22.378906 L 121.25 25.550781 L 124.570312 25.550781 L 124.570312 27.136719 Z M 124.527344 27.136719 " fill-opacity="1" fill-rule="nonzero"/><path fill="#eb2027" d="M 55.191406 20.125 C 54.730469 20.125 54.351562 20.292969 54.015625 20.625 C 53.679688 20.960938 53.511719 21.335938 53.511719 21.796875 C 53.511719 22.253906 53.679688 22.628906 54.015625 22.964844 C 54.351562 23.296875 54.730469 23.464844 55.191406 23.464844 C 55.652344 23.464844 56.03125 23.296875 56.367188 22.964844 C 56.703125 22.628906 56.871094 22.253906 56.871094 21.796875 C 56.871094 21.335938 56.703125 20.960938 56.367188 20.625 C 56.03125 20.292969 55.652344 20.125 55.191406 20.125 Z M 55.191406 20.125 " fill-opacity="1" fill-rule="nonzero"/><path fill="#eb2027" d="M 105.796875 20.625 C 105.460938 20.292969 105.082031 20.125 104.621094 20.125 C 104.160156 20.125 103.78125 20.292969 103.445312 20.625 C 103.109375 20.960938 102.941406 21.335938 102.941406 21.796875 C 102.941406 22.253906 103.109375 22.628906 103.445312 22.964844 C 103.78125 23.296875 104.160156 23.464844 104.621094 23.464844 C 105.082031 23.464844 105.460938 23.296875 105.796875 22.964844 C 106.132812 22.628906 106.300781 22.253906 106.300781 21.796875 C 106.257812 21.335938 106.132812 20.960938 105.796875 20.625 Z M 105.796875 20.625 " fill-opacity="1" fill-rule="nonzero"/><path stroke-linecap="butt" transform="matrix(0.419966, 0, 0, 0.417411, 13.236507, 8.688419)" fill-opacity="1" fill="#faaf40" fill-rule="nonzero" stroke-linejoin="miter" d="M 35.702783 34.997798 C 35.898111 35.100739 36.10274 35.100739 36.298069 34.904215 C 36.502698 34.698333 36.595712 34.501809 36.800341 34.295926 C 37.200299 33.696996 37.702571 33.201006 38.102529 32.7986 C 38.5955 32.302611 39.097773 31.797263 39.70236 31.404215 C 40.502276 30.702343 41.404506 30.196996 42.39975 29.701006 C 43.199666 29.2986 44.101896 28.896194 45.004126 28.596728 C 45.599412 28.400204 46.101685 28.20368 46.696971 28.100739 C 47.496886 27.997798 48.296802 27.801274 49.096718 27.801274 C 49.896633 27.801274 50.798863 27.801274 51.598779 27.904215 C 52.501009 27.997798 53.300925 28.20368 54.10084 28.400204 C 54.900756 28.596728 55.700672 28.896194 56.500587 29.195659 C 57.402817 29.598065 58.202733 30.103413 59.002649 30.702343 C 59.700249 31.198333 60.295535 31.797263 60.900123 32.499135 L 61.002437 32.602076 C 61.095451 32.695659 61.095451 32.695659 61.197766 32.7986 C 61.997681 33.799937 63.299869 35.896194 63.904457 37.795926 C 64.602057 40.098065 64.797386 42.503146 64.397428 45.001809 C 64.2021 45.900204 63.904457 47.603413 63.104541 48.997798 C 63.002226 49.100739 62.899912 49.297263 62.899912 49.400205 C 62.899912 49.400205 62.899912 49.503146 62.797597 49.503146 C 57.998103 56.999135 51.896422 55.202344 49.403662 54.098066 C 44.799497 52.001809 43.804253 47.696996 44.297224 44.599402 C 44.901812 41.202343 47.199243 38.900204 50.203577 38.70368 C 50.50122 38.70368 50.603535 38.497798 50.603535 38.198333 C 50.603535 37.898867 50.398906 37.702343 50.101263 37.702343 C 46.696971 37.898867 43.999581 40.603413 43.404295 44.402878 C 42.799708 47.799937 43.999581 52.600739 49.096718 54.902878 C 50.798863 55.698333 52.398695 56.100739 53.998526 56.100739 C 55.998315 56.100739 57.998103 55.398868 59.802564 54.098066 C 60.695493 53.499135 61.402395 52.900205 62.202311 52.001809 C 62.397639 51.795926 62.499954 51.702344 62.602269 51.599402 C 63.002226 51.103413 63.299869 50.701007 63.597512 50.102076 C 63.699827 49.896194 63.802142 49.802611 63.904457 49.596729 C 63.99747 49.400205 64.099785 49.297263 64.2021 49.100739 C 64.2021 48.997798 64.304414 48.997798 64.397428 48.698333 C 64.797386 47.902878 65.10433 47.004483 65.299658 46.003146 C 65.504288 45.095392 65.597301 44.196996 65.699616 43.2986 C 65.801931 41.698333 65.699616 40.004482 65.299658 38.404215 C 65.197343 38.095392 65.10433 37.795926 65.10433 37.496461 C 64.704372 36.102076 64.099785 34.904215 63.504499 33.902878 C 63.402184 33.799937 63.402184 33.696996 63.299869 33.603413 C 63.197555 33.39753 63.104541 33.201006 62.899912 33.098065 C 62.202311 32.096728 61.402395 31.095391 60.39785 30.299937 C 59.300292 29.401541 58.100418 28.596728 56.79823 27.997798 C 55.802986 27.595391 54.798441 27.202343 53.700883 27.099402 C 53.003282 26.996461 52.29638 26.902878 51.598779 26.799937 C 50.603535 26.696996 49.701305 26.696996 48.69676 26.799937 C 47.803831 26.902878 46.9016 26.996461 45.99937 27.295926 C 45.701727 27.398867 45.404084 27.501808 45.09714 27.595391 C 44.697182 27.698333 43.004337 28.503145 42.204422 28.802611 C 41.999792 28.896194 41.804464 28.999135 41.599834 29.102076 C 41.302191 29.2986 41.004549 29.401541 40.799919 29.598065 C 39.200088 30.599402 37.795585 31.900204 36.595712 33.39753 C 36.400383 33.696996 36.195754 33.996461 36.000426 34.295926 C 35.395838 34.595391 35.498153 34.904215 35.702783 34.997798 Z M 35.702783 34.997798 " stroke="#faaf40" stroke-width="0.484" stroke-opacity="1" stroke-miterlimit="10"/><path stroke-linecap="butt" transform="matrix(0.419966, 0, 0, 0.417411, 13.236507, 8.688419)" fill-opacity="1" fill="#ffffff" fill-rule="nonzero" stroke-linejoin="miter" d="M 50.50122 65.795927 C 47.096929 63.503146 45.09714 60.602076 44.101896 56.503146 C 47.096929 59.900205 50.696549 60.396194 53.700883 60.396194 C 62.202311 60.396194 69.299236 52.497798 69.299236 43.195659 C 69.103908 35.802611 66.099574 29.598065 61.197766 26.004482 C 55.700672 22.102076 48.296802 21.802611 40.204633 25.199669 C 40.000003 25.302611 39.795374 25.602076 39.897689 25.7986 C 40.000003 26.098065 40.297646 26.201006 40.502276 26.098065 C 48.296802 22.803947 55.403029 23.103413 60.695493 26.799937 C 65.401973 30.196996 68.201677 36.102076 68.397006 43.195659 C 68.397006 52.001809 61.700038 59.404215 53.700883 59.404215 C 50.50122 59.404215 46.603957 58.795927 43.701938 54.397531 C 43.599623 54.201007 43.30198 54.098066 43.199666 54.201007 C 43.004337 54.303948 42.902023 54.500472 42.902023 54.696996 C 43.497309 58.496461 44.799497 61.500472 46.9016 63.896194 C 45.804042 63.10074 44.901812 62.202344 43.999581 61.201007 C 43.097351 60.096729 42.204422 58.898868 41.599834 57.598066 C 41.302191 56.999135 40.902234 56.100739 40.604591 55.202344 C 40.502276 54.996461 40.502276 54.799937 40.399961 54.603413 C 40.102318 53.695659 39.897689 52.797263 39.795374 51.795926 C 39.70236 51.196996 39.600046 50.598066 39.600046 49.999135 C 39.600046 48.997798 39.600046 47.996461 39.70236 47.004483 C 39.897689 45.70368 40.204633 44.103413 40.399961 43.504483 C 40.604591 42.802611 40.799919 42.20368 41.097562 41.595392 C 41.804464 40.303948 42.60438 39.096728 43.701938 38.198333 C 45.301769 36.803948 47.096929 35.999135 49.199032 35.802611 C 50.203577 35.69967 51.096506 35.69967 52.101052 35.896194 C 53.300925 36.195659 55.003071 36.701006 56.202944 38.301274 C 56.695915 39.003146 57.095873 39.7986 57.300503 40.902878 C 57.495831 41.698333 57.495831 42.400204 57.495831 43.102076 L 57.495831 43.195659 C 57.495831 43.504483 57.402817 43.803948 57.402817 44.103413 C 57.300503 44.402878 57.198188 44.795926 57.095873 45.095392 C 56.695915 46.003146 56.202944 46.302611 56.202944 46.302611 L 56.100629 46.396194 C 55.700672 46.695659 55.300714 46.901541 54.900756 47.098065 C 54.296169 47.303948 53.700883 47.303948 53.003282 47.098065 C 52.696338 47.004483 52.398695 46.901541 52.203366 46.602076 L 52.29638 46.602076 C 52.900967 46.7986 53.40324 46.7986 53.998526 46.499135 C 54.696126 46.19967 55.096084 45.600739 55.300714 44.795926 C 55.496042 43.803948 55.096084 42.400204 54.296169 41.801274 C 53.598568 41.295926 52.900967 41.099402 52.203366 41.099402 C 50.901178 41.099402 49.199032 41.904215 48.203789 43.504483 C 47.199243 45.095392 47.199243 47.004483 48.101474 48.997798 C 48.203789 49.20368 48.203789 49.297263 48.399117 49.503146 C 49.496675 50.897531 51.096506 51.795926 52.696338 52.095392 C 53.598568 52.301274 54.500798 52.198333 55.403029 52.095392 C 56.398272 51.898868 57.402817 51.496461 58.202733 50.897531 C 59.402606 50.102076 60.295535 48.997798 61.002437 47.696996 L 61.002437 47.603413 C 61.095451 47.397531 61.095451 47.303948 61.197766 47.098065 C 61.197766 47.004483 61.30008 46.901541 61.30008 46.7986 L 61.30008 46.695659 C 61.997681 44.702343 61.997681 42.896194 61.895366 41.595392 C 61.895366 41.595392 61.895366 41.595392 61.895366 41.501809 L 61.895366 41.398868 C 61.895366 41.295926 61.895366 41.295926 61.895366 41.202343 C 61.495409 37.496461 60.100207 35.503145 59.402606 34.801274 L 58.695704 34.099402 C 57.895789 33.201006 56.900545 32.695659 55.802986 32.096728 C 54.900756 31.70368 53.998526 31.301274 53.003282 31.198333 C 52.29638 31.095391 51.598779 30.898867 50.901178 30.898867 C 50.101263 30.898867 49.403662 30.898867 48.603746 30.898867 C 47.803831 30.898867 47.003915 31.095391 46.297013 31.301274 C 45.701727 31.497798 45.199455 31.70368 44.604169 31.900204 C 44.501854 31.900204 44.399539 32.003145 44.297224 32.003145 C 43.30198 32.499135 42.297435 33.004482 41.49752 33.696996 C 41.49752 33.696996 41.404506 33.696996 41.404506 33.799937 C 40.399961 34.595391 39.497731 35.503145 38.697815 36.504482 C 37.702571 37.795926 36.902656 39.302611 36.298069 40.902878 C 35.795796 42.20368 35.498153 43.598065 35.302825 45.001809 C 35.098195 46.19967 34.99588 47.397531 34.99588 48.595392 C 34.99588 49.802611 34.99588 51.000472 35.20051 52.198333 C 35.302825 52.797263 35.395838 53.396194 35.498153 53.901542 C 35.702783 54.799937 35.898111 55.698333 36.195754 56.596729 C 36.298069 57.102076 36.502698 57.598066 36.698026 58.103413 C 36.698026 58.196996 36.800341 58.299937 36.800341 58.402878 C 37.097984 59.404215 38.102529 61.201007 38.502487 61.799937 C 38.80013 62.295927 39.200088 62.904215 39.497731 63.400205 C 40.204633 64.401542 41.097562 65.402879 41.999792 66.198333 C 42.204422 66.404216 42.502065 66.404216 42.697393 66.198333 C 42.902023 66.001809 42.902023 65.795927 42.60438 65.496461 C 41.897477 64.803948 41.302191 63.999135 40.604591 63.297264 C 40.102318 62.595392 39.600046 61.902879 39.097773 61.201007 C 38.697815 60.499135 38.000214 59.095392 37.497942 58.103413 C 37.302614 57.701007 37.200299 57.2986 37.097984 56.999135 C 36.698026 55.698333 36.298069 54.397531 36.10274 53.096729 C 36.000426 52.404215 35.898111 51.702344 35.898111 51.103413 C 35.795796 50.195659 35.795796 48.801274 35.898111 47.799937 C 35.898111 47.397531 36.000426 47.004483 36.000426 46.602076 C 36.10274 45.900204 36.195754 45.301274 36.298069 44.599402 C 36.502698 43.701007 36.698026 42.896194 36.902656 42.100739 C 37.200299 41.202343 37.497942 40.397531 37.8979 39.695659 C 38.502487 38.600739 39.200088 37.599402 40.000003 36.701006 C 40.204633 36.401541 40.502276 36.195659 40.799919 35.999135 C 40.902234 35.896194 40.902234 35.896194 41.004549 35.802611 C 41.302191 35.596728 41.49752 35.297263 41.804464 35.100739 C 43.097351 34.099402 44.501854 33.303948 46.204 32.7986 C 46.799286 32.602076 47.496886 32.396194 48.101474 32.396194 C 48.799075 32.302611 49.496675 32.302611 50.203577 32.302611 C 51.003493 32.302611 51.896422 32.396194 52.696338 32.602076 C 53.40324 32.7986 53.998526 32.901541 54.696126 33.201006 C 55.403029 33.500472 56.100629 33.902878 56.695915 34.295926 C 57.402817 34.801274 58.100418 35.400204 58.695704 36.195659 C 59.095662 36.803948 60.39785 38.600739 60.900123 40.996461 C 61.002437 41.501809 61.30008 44.000472 59.997892 47.004483 L 59.895578 47.098065 C 59.597935 47.603413 59.402606 47.996461 59.002649 48.501809 C 57.802775 49.896194 56.295958 50.803948 54.603113 51.000472 C 53.803197 51.103413 53.096295 51.103413 52.29638 50.897531 C 51.496464 50.701007 50.696549 50.401541 49.998948 49.896194 C 49.403662 49.400205 49.003704 48.904215 48.603746 48.295926 C 47.599201 46.19967 48.101474 44.795926 48.603746 43.897531 C 49.496675 42.503146 51.096506 41.801274 52.203366 41.997798 L 52.29638 41.997798 C 52.501009 41.997798 52.696338 42.100739 52.798652 42.100739 C 53.598568 42.400204 53.998526 42.896194 54.10084 43.803948 C 54.203155 44.599402 53.896211 45.301274 53.096295 45.600739 C 52.603324 45.797263 52.101052 45.600739 51.803409 45.198333 C 51.496464 44.795926 51.403451 44.196996 51.803409 43.701007 C 51.896422 43.598065 51.896422 43.504483 51.803409 43.2986 C 51.701094 43.195659 51.598779 43.102076 51.403451 43.195659 C 50.901178 43.504483 50.696549 43.897531 50.50122 44.402878 C 50.296591 45.404215 50.696549 46.695659 51.496464 47.303948 C 52.101052 47.799937 52.696338 47.902878 53.496253 47.996461 C 54.603113 47.996461 55.496042 47.696996 56.295958 47.098065 L 56.398272 47.004483 C 56.398272 47.004483 59.002649 45.301274 57.998103 40.603413 C 57.198188 37.103413 55.003071 35.802611 53.19861 35.20368 C 52.798652 34.997798 52.398695 34.904215 51.896422 34.801274 C 51.803409 34.801274 51.803409 34.801274 51.701094 34.801274 C 51.301136 34.698333 50.798863 34.698333 50.398906 34.698333 L 50.296591 34.698333 C 50.296591 34.698333 50.296591 34.698333 50.203577 34.698333 C 49.496675 34.698333 48.901389 34.698333 48.399117 34.801274 C 47.896844 34.904215 47.496886 34.904215 47.096929 35.100739 C 46.101685 35.400204 45.09714 35.802611 44.204211 36.401541 C 43.199666 37.000472 42.204422 37.898867 41.404506 38.797263 C 40.697604 39.695659 40.102318 40.603413 39.600046 41.698333 C 39.302403 42.400204 39.097773 43.102076 38.902445 43.803948 C 38.5955 44.795926 38.195543 47.201007 38.297857 48.595392 C 38.297857 50.2986 38.502487 52.001809 38.902445 53.695659 C 38.995458 54.201007 39.200088 54.696996 39.302403 55.202344 C 39.302403 55.202344 39.302403 55.295927 39.395416 55.501809 C 39.497731 55.801274 39.600046 56.100739 39.70236 56.400205 C 39.70236 56.503146 39.795374 56.503146 39.795374 56.596729 C 39.897689 56.802611 40.000003 56.999135 40.000003 57.195659 C 40.000003 57.2986 40.102318 57.401542 40.102318 57.504483 C 40.399961 58.103413 40.697604 58.795927 41.097562 59.301274 C 41.599834 60.19967 42.297435 61.098066 42.902023 61.902879 C 43.897266 62.997798 45.004126 64.102076 46.204 64.897531 C 46.603957 65.103413 46.9016 65.402879 47.301558 65.599403 C 47.301558 65.599403 47.403873 65.599403 47.403873 65.702344 C 47.496886 65.702344 47.496886 65.795927 47.599201 65.795927 C 47.896844 66.001809 48.296802 66.198333 48.603746 66.301274 C 49.096718 66.60074 49.59899 66.797264 49.896633 66.900205 C 49.998948 66.900205 49.998948 66.900205 50.101263 66.900205 C 50.296591 66.900205 50.398906 66.797264 50.50122 66.60074 C 50.798863 66.198333 50.696549 65.898868 50.50122 65.795927 Z M 50.50122 65.795927 " stroke="#ffffff" stroke-width="0.484" stroke-opacity="1" stroke-miterlimit="10"/><path stroke-linecap="butt" transform="matrix(0.419966, 0, 0, 0.417411, 13.236507, 8.688419)" fill-opacity="1" fill="#ffffff" fill-rule="nonzero" stroke-linejoin="miter" d="M 67.904034 55.099402 C 63.699827 61.500472 57.598146 64.2986 51.403451 62.595392 C 51.198821 62.501809 50.901178 62.698333 50.901178 62.904215 C 50.798863 63.10074 50.901178 63.400205 51.096506 63.503146 C 51.096506 63.503146 54.500798 65.299937 55.403029 67.396194 C 55.496042 67.602076 55.598357 67.695659 55.802986 67.695659 C 55.896 67.695659 55.896 67.695659 55.998315 67.695659 C 56.202944 67.602076 56.295958 67.302611 56.202944 67.003146 C 55.700672 65.795927 54.603113 64.803948 53.598568 63.999135 C 59.300292 64.598066 64.797386 61.603413 68.70395 55.595392 C 68.796963 55.398868 68.796963 55.099402 68.601635 54.902878 C 68.397006 54.799937 68.099363 54.902878 67.904034 55.099402 Z M 67.904034 55.099402 " stroke="#ffffff" stroke-width="0.484" stroke-opacity="1" stroke-miterlimit="10"/><path stroke-linecap="butt" transform="matrix(0.419966, 0, 0, 0.417411, 13.236507, 8.688419)" fill-opacity="1" fill="#ffffff" fill-rule="nonzero" stroke-linejoin="miter" d="M 66.499532 62.501809 C 64.499743 64.2986 62.099996 65.496461 59.597935 65.898868 C 59.402606 65.898868 59.197977 66.198333 59.197977 66.497798 C 59.197977 66.703681 59.402606 66.900205 59.700249 66.900205 C 59.700249 66.900205 59.700249 66.900205 59.802564 66.900205 C 62.499954 66.404216 65.002015 65.196996 67.197132 63.297264 C 67.401762 63.10074 67.401762 62.801274 67.299447 62.595392 C 67.001804 62.295927 66.704161 62.295927 66.499532 62.501809 Z M 66.499532 62.501809 " stroke="#ffffff" stroke-width="0.484" stroke-opacity="1" stroke-miterlimit="10"/><g clip-path="url(#64f8e8beb2)"><path fill="#eb2027" d="M 127.804688 24.84375 C 127.507812 25.132812 127.171875 25.257812 126.796875 25.257812 C 126.417969 25.257812 126.082031 25.132812 125.789062 24.84375 C 125.492188 24.550781 125.367188 24.214844 125.367188 23.839844 C 125.367188 23.464844 125.492188 23.128906 125.789062 22.839844 C 126.082031 22.546875 126.417969 22.421875 126.796875 22.421875 C 127.171875 22.421875 127.507812 22.546875 127.804688 22.839844 C 128.097656 23.128906 128.222656 23.464844 128.222656 23.839844 C 128.222656 24.214844 128.097656 24.550781 127.804688 24.84375 Z M 125.914062 22.964844 C 125.660156 23.214844 125.535156 23.507812 125.535156 23.839844 C 125.535156 24.175781 125.660156 24.464844 125.871094 24.71875 C 126.125 24.96875 126.417969 25.09375 126.753906 25.09375 C 127.089844 25.09375 127.382812 24.96875 127.636719 24.71875 C 127.886719 24.464844 128.011719 24.175781 128.011719 23.839844 C 128.011719 23.507812 127.886719 23.214844 127.636719 22.964844 C 127.382812 22.714844 127.089844 22.589844 126.753906 22.589844 C 126.460938 22.628906 126.164062 22.714844 125.914062 22.964844 Z M 126.753906 23.046875 C 126.964844 23.046875 127.089844 23.046875 127.171875 23.089844 C 127.339844 23.171875 127.425781 23.296875 127.425781 23.464844 C 127.425781 23.589844 127.382812 23.714844 127.257812 23.757812 C 127.214844 23.796875 127.132812 23.796875 127.046875 23.839844 C 127.171875 23.839844 127.257812 23.925781 127.300781 24.007812 C 127.339844 24.089844 127.382812 24.175781 127.382812 24.257812 L 127.382812 24.382812 C 127.382812 24.425781 127.382812 24.464844 127.382812 24.507812 C 127.382812 24.550781 127.382812 24.589844 127.382812 24.589844 L 127.132812 24.589844 L 127.132812 24.425781 C 127.132812 24.257812 127.089844 24.132812 126.964844 24.050781 C 126.921875 24.007812 126.796875 24.007812 126.667969 24.007812 L 126.460938 24.007812 L 126.460938 24.632812 L 126.207031 24.632812 L 126.207031 23.089844 L 126.753906 23.089844 Z M 127.046875 23.296875 C 126.964844 23.257812 126.878906 23.257812 126.710938 23.257812 L 126.460938 23.257812 L 126.460938 23.839844 L 126.710938 23.839844 C 126.835938 23.839844 126.921875 23.839844 126.964844 23.796875 C 127.089844 23.757812 127.132812 23.671875 127.132812 23.546875 C 127.171875 23.421875 127.132812 23.339844 127.046875 23.296875 Z M 127.046875 23.296875 " fill-opacity="1" fill-rule="nonzero"/></g></svg>